<svg width="20" height="20" viewBox="0 0 20 20" fill="none" xmlns="http://www.w3.org/2000/svg">
<path d="M10 1.25C8.26942 1.25 6.57769 1.76318 5.13876 2.72464C3.69983 3.6861 2.57832 5.05267 1.91606 6.65152C1.25379 8.25037 1.08051 10.0097 1.41813 11.707C1.75575 13.4044 2.58911 14.9635 3.81282 16.1872C5.03653 17.4109 6.59563 18.2443 8.29296 18.5819C9.9903 18.9195 11.7496 18.7462 13.3485 18.0839C14.9473 17.4217 16.3139 16.3002 17.2754 14.8612C18.2368 13.4223 18.75 11.7306 18.75 10C18.75 7.67936 17.8281 5.45376 16.1872 3.81282C14.5462 2.17187 12.3206 1.25 10 1.25ZM14.6875 5.625C15.1202 5.625 15.5431 5.75329 15.9028 5.99366C16.2625 6.23403 16.5429 6.57567 16.7085 6.97538C16.8741 7.37509 16.9174 7.81493 16.833 8.23926C16.7486 8.66359 16.5402 9.05337 16.2343 9.3593C15.9284 9.66522 15.5386 9.87356 15.1143 9.95797C14.6899 10.0424 14.2501 9.99905 13.8504 9.83349C13.4507 9.66792 13.109 9.38754 12.8687 9.02781C12.6283 8.66808 12.5 8.24515 12.5 7.8125C12.5007 7.23254 12.7313 6.67653 13.1414 6.26643C13.5515 5.85634 14.1075 5.62566 14.6875 5.625ZM14.9594 4.38875C14.869 4.3806 14.7783 4.37601 14.6875 4.375C14.1982 4.37493 13.7146 4.47965 13.2691 4.68211C12.8236 4.88457 12.4267 5.18008 12.105 5.54875C11.7959 4.82269 11.3195 4.17999 10.7147 3.67307C10.11 3.16616 9.3939 2.80939 8.625 2.63187C9.74474 2.41771 10.8988 2.46483 11.9974 2.76955C13.0959 3.07427 14.11 3.62838 14.9594 4.38875ZM10 17.5C9.50555 17.5 9.0222 17.3534 8.61108 17.0787C8.19996 16.804 7.87952 16.4135 7.69031 15.9567C7.50109 15.4999 7.45158 14.9972 7.54804 14.5123C7.6445 14.0273 7.88261 13.5819 8.23224 13.2322C8.58187 12.8826 9.02733 12.6445 9.51228 12.548C9.99723 12.4516 10.4999 12.5011 10.9567 12.6903C11.4135 12.8795 11.804 13.2 12.0787 13.6111C12.3534 14.0222 12.5 14.5055 12.5 15C12.4992 15.6628 12.2355 16.2982 11.7669 16.7669C11.2982 17.2355 10.6628 17.4992 10 17.5ZM7.5 11.25C6.75832 11.25 6.0333 11.0301 5.41662 10.618C4.79993 10.206 4.31928 9.62029 4.03546 8.93506C3.75163 8.24984 3.67736 7.49584 3.82206 6.76841C3.96675 6.04098 4.32391 5.3728 4.84835 4.84835C5.3728 4.3239 6.04099 3.96675 6.76842 3.82206C7.49584 3.67736 8.24984 3.75162 8.93507 4.03545C9.62029 4.31928 10.206 4.79993 10.618 5.41661C11.0301 6.0333 11.25 6.75832 11.25 7.5C11.2488 8.49421 10.8534 9.44736 10.1504 10.1504C9.44737 10.8534 8.49421 11.2488 7.5 11.25ZM2.5 10C2.5015 9.53879 2.54565 9.07871 2.63188 8.62562C2.87603 9.67939 3.45565 10.6254 4.2836 11.3215C5.11155 12.0176 6.14309 12.4261 7.22313 12.4856C6.70964 13.0482 6.381 13.7547 6.28153 14.5098C6.18207 15.2649 6.31656 16.0324 6.66688 16.7087C5.41718 16.0886 4.36517 15.1323 3.62908 13.9471C2.893 12.762 2.50199 11.3951 2.5 10ZM13.3325 16.7087C13.5992 16.1925 13.7419 15.6212 13.7494 15.0402C13.7568 14.4591 13.6287 13.8844 13.3752 13.3615C13.1218 12.8386 12.75 12.3819 12.2893 12.0278C11.8286 11.6736 11.2917 11.4317 10.7213 11.3213C11.2106 10.9088 11.6165 10.4064 11.9169 9.84125C12.2378 10.2813 12.6589 10.6386 13.1454 10.8836C13.6319 11.1286 14.1697 11.2542 14.7143 11.2501C15.259 11.2459 15.7948 11.1121 16.2775 10.8597C16.7602 10.6074 17.1758 10.2437 17.49 9.79875C17.4919 9.86625 17.5 9.9325 17.5 10C17.498 11.3952 17.1069 12.7621 16.3707 13.9473C15.6345 15.1324 14.5823 16.0887 13.3325 16.7087Z" fill="black"/>
</svg>
